# xmcd CD database file
#
# Track frame offsets:
#	150
#	23762
#	38220
#	55385
#	77822
#	92382
#	107840
#	128875
#	200275
#	205577
#
# Disc length: 4035 seconds
#
# Revision: 0
# Processed by: cddbd v1.5PL3 Copyright (c) Steve Scherf et al.
# Submitted via: CDex 1.51
#
DISCID=7b0fc10a
DTITLE=Sabrina Fox - Meine Lieder
DYEAR=1996
DGENRE=New Age
TTITLE0=Warum nicht?
TTITLE1=Bleib, bleib hier
TTITLE2=Mein Gott, lass mich dich in allem sehen
TTITLE3=Danke, dass du mir auf die Nerven gehst
TTITLE4=Was immer da kommt
TTITLE5=Wieviele Engel hat der liebe Gott für mich?
TTITLE6=Wo bist du ?
TTITLE7=Toning
TTITLE8=Himmlischer Vater
TTITLE9=Meditation
EXTD=YEAR: 1996
EXTT0=
EXTT1=
EXTT2=
EXTT3=
EXTT4=
EXTT5=
EXTT6=
EXTT7=
EXTT8=
EXTT9=
PLAYORDER=
